<svg xmlns="http://www.w3.org/2000/svg" viewBox="0 0 173.4 49.669">
  <defs>
    <style>
      .cls-1 {
        fill: #f1d476;
      }

      .cls-2 {
        fill: #fff;
      }
    </style>
  </defs>
  <g id="Group_4" data-name="Group 4" transform="translate(-180.6 -61.631)">
    <g id="Group_2" data-name="Group 2" transform="translate(97 61.631)">
      <path id="Path_2" data-name="Path 2" class="cls-1" d="M100.065,49.614h0A16.468,16.468,0,0,1,83.6,33.149V.132A.127.127,0,0,1,83.732,0h.22A16.247,16.247,0,0,1,100.2,16.245V49.482A.134.134,0,0,1,100.065,49.614Z"/>
      <path id="Path_3" data-name="Path 3" class="cls-1" d="M418.132,50.114h0A16.468,16.468,0,0,0,434.6,33.649V.632A.127.127,0,0,0,434.465.5h-.22A16.247,16.247,0,0,0,418,16.745V49.982A.134.134,0,0,0,418.132,50.114Z" transform="translate(-297.597 -0.445)"/>
      <path id="Path_4" data-name="Path 4" class="cls-1" d="M260.578,99.8l-6.3-6.3-6.042,6.042a9.28,9.28,0,0,0,0,13.119l6.042,6.042,6.3-6.3A8.928,8.928,0,0,0,260.578,99.8Z" transform="translate(-144.104 -83.21)"/>
    </g>
    <g id="Group_3" data-name="Group 3" transform="translate(249 -409.676)">
      <path id="Path_5" data-name="Path 5" class="cls-2" d="M9.922,495.656l4.187-5.024a3.413,3.413,0,0,1,2.765-1.232h2.97v17.679c0,1.738-1,2.623-2.97,2.623s-2.97-.869-2.97-2.623v-8.294l-3.966,4.661-3.981-4.629v8.263c0,1.738-1,2.623-2.97,2.623H0V489.4H2.97A3.467,3.467,0,0,1,5.7,490.632Z" transform="translate(0 -3.2)"/>
      <path id="Path_6" data-name="Path 6" class="cls-2" d="M141.14,507.079c0,1.738-1,2.623-2.97,2.623H135.2V492.023c0-1.738,1-2.623,2.97-2.623h2.97Z" transform="translate(-113.84 -3.2)"/>
      <path id="Path_7" data-name="Path 7" class="cls-2" d="M193.1,509.7H185.47c-1.991,0-2.97-.869-2.97-2.623V489.4h2.97c1.991,0,2.97.869,2.97,2.623V504.93h6.525v2.386C194.965,508.912,194.333,509.7,193.1,509.7Z" transform="translate(-153.667 -3.2)"/>
      <path id="Path_8" data-name="Path 8" class="cls-2" d="M281.6,509.7H273.97c-1.991,0-2.97-.869-2.97-2.623V489.4h2.97c1.991,0,2.97.869,2.97,2.623V504.93h6.525v2.386C283.465,508.912,282.833,509.7,281.6,509.7Z" transform="translate(-228.185 -3.2)"/>
      <path id="Path_9" data-name="Path 9" class="cls-2" d="M365.44,507.079c0,1.738-1,2.623-2.97,2.623H359.5V492.023c0-1.738,1-2.623,2.97-2.623h2.97Z" transform="translate(-302.703 -3.2)"/>
      <path id="Path_10" data-name="Path 10" class="cls-2" d="M426.7,496.154a10.021,10.021,0,0,1-3.049,7.615,10.753,10.753,0,0,1-7.742,2.907,10.614,10.614,0,0,1-7.694-2.907,11.159,11.159,0,0,1-.016-15.246,11.735,11.735,0,0,1,15.5,0A10.247,10.247,0,0,1,426.7,496.154Zm-7.125-3.776a5.111,5.111,0,0,0-7.22.016,5.368,5.368,0,0,0-1.375,3.776,5.263,5.263,0,0,0,1.375,3.744,4.715,4.715,0,0,0,3.618,1.469,4.615,4.615,0,0,0,3.6-1.485,5.882,5.882,0,0,0,0-7.52Z" transform="translate(-341.182)"/>
      <path id="Path_11" data-name="Path 11" class="cls-2" d="M561.576,498.451v-6.43c0-1.738,1-2.623,2.97-2.623h2.97v17.679c0,1.738-1,2.623-2.97,2.623a3.264,3.264,0,0,1-2.623-1.138l-6.683-7.947v6.462c0,1.738-1,2.623-2.97,2.623H549.3V489.413l2.97-.016A2.971,2.971,0,0,1,555,490.63Z" transform="translate(-462.516 -3.197)"/>
    </g>
  </g>
</svg>
