<svg xmlns="http://www.w3.org/2000/svg" width="67.153" height="54.3" viewBox="0 0 67.153 54.3">
  <g id="business-card-of-a-man-with-contact-info" transform="translate(0 -3.057)">
    <g id="Group_39" data-name="Group 39" transform="translate(0 3.057)">
      <path id="Path_54" data-name="Path 54" d="M25.429,28.823H23.8A1.534,1.534,0,0,1,22.26,27.29a1.166,1.166,0,0,1,.351-.835,11.015,11.015,0,0,0,2.328-3.5.657.657,0,0,0,.387.149c.917,0,2-2.027,2-3.408s-.128-2.5-1.047-2.5a1.415,1.415,0,0,0-.341.048c-.065-3.747-1.011-8.421-6.732-8.421-5.969,0-6.665,4.666-6.732,8.408a1.311,1.311,0,0,0-.246-.036c-.919,0-1.045,1.121-1.045,2.5s1.076,3.408,2,3.408a.628.628,0,0,0,.317-.088,11.049,11.049,0,0,0,2.3,3.45,1.157,1.157,0,0,1,.351.833,1.535,1.535,0,0,1-1.535,1.535H12.974a6.326,6.326,0,0,0-6.327,6.327v1.754a2,2,0,0,0,2,2H29.758a2,2,0,0,0,2-2V35.155A6.326,6.326,0,0,0,25.429,28.823Z" transform="translate(7.329 3.294)" fill="#ffda49"/>
      <path id="Path_55" data-name="Path 55" d="M33.873,10.077H16.168A13.018,13.018,0,0,1,17.2,14.322a2.57,2.57,0,0,1,.894,1.064H33.873a1.478,1.478,0,0,0,1.48-1.48V11.557A1.48,1.48,0,0,0,33.873,10.077Z" transform="translate(17.826 4.683)" fill="#ffda49"/>
      <path id="Path_56" data-name="Path 56" d="M34.255,14.678H18.833c-.418,1.581-1.449,3.236-2.876,3.677-.042.078-.09.145-.135.223v1.409H34.253a1.48,1.48,0,0,0,1.48-1.482V16.158A1.475,1.475,0,0,0,34.255,14.678Z" transform="translate(17.444 9.755)" fill="#ffda49"/>
      <path id="Path_57" data-name="Path 57" d="M30.9,19.279H18.863a8.082,8.082,0,0,1,1.262,4.335v.973H30.9a1.478,1.478,0,0,0,1.48-1.48V20.759A1.478,1.478,0,0,0,30.9,19.279Z" transform="translate(20.797 14.828)" fill="#ffda49"/>
      <path id="Path_58" data-name="Path 58" d="M58.061,3.057H9.093A9.092,9.092,0,0,0,0,12.15V48.263a9.091,9.091,0,0,0,9.093,9.093H58.061a9.091,9.091,0,0,0,9.091-9.093V12.15A9.091,9.091,0,0,0,58.061,3.057Zm4.8,45.206a4.805,4.805,0,0,1-4.8,4.8H9.093a4.805,4.805,0,0,1-4.8-4.8V12.15a4.805,4.805,0,0,1,4.8-4.8H58.061a4.805,4.805,0,0,1,4.8,4.8V48.263Z" transform="translate(0 -3.057)" fill="#ffda49"/>
    </g>
  </g>
</svg>
