<svg xmlns="http://www.w3.org/2000/svg" width="56.596" height="57.489" viewBox="0 0 56.596 57.489">
  <g id="cab8026bca3e7ccfd6dcc40b95160afb" transform="translate(-10 -2.24)">
    <g id="Group_43" data-name="Group 43" transform="translate(10 2.24)">
      <path id="Path_65" data-name="Path 65" d="M20.582-508.48l-.325.278-.035,2.5-.035,2.5H10.568l-.278.29c-.266.255-.289.371-.289,1.24a33.469,33.469,0,0,0,.521,4.845c1.171,6.212,3.929,12.007,6.85,14.418a5.809,5.809,0,0,0,3.859,1.541l.429-.058.556,1.089a16.713,16.713,0,0,0,7.43,7.279c.707.336,1.368.649,1.484.684.185.07.2.359.2,3.848v3.767H28.9c-2.4,0-2.434,0-2.759.278l-.325.278-.035,2.5-.035,2.5H23.329c-2.387,0-2.423,0-2.747.278l-.325.278v6.305l.325.278.325.278H54.865l.278-.29.29-.278v-6.282l-.29-.278c-.278-.29-.278-.29-2.782-.29H49.87v-2.492c0-3.338.267-3.072-3.071-3.072H44.307v-7.476l1.113-.51a16.947,16.947,0,0,0,8.287-7.939c.487-.985.487-.985.765-.8.591.394,2.283-.035,3.639-.916,4.126-2.643,8.043-11.579,8.415-19.17l.069-1.53-.3-.3-.3-.3H55.434v-2.48c0-2.272-.023-2.5-.22-2.747l-.22-.278-17.037-.035-17.049-.023Zm32.974,12.436-.035,10.871-.313,1.113a15.106,15.106,0,0,1-9.585,10.593c-1.217.464-1.171.255-1.171,5.158v4.056H33.18v-8.542l-.255-.22a5.109,5.109,0,0,0-1.136-.556,15.244,15.244,0,0,1-8.97-9.4c-.707-2.179-.684-1.7-.73-13.306L22.043-506.9H53.591Zm-33.322,2.376c.046,8.009.069,8.461.591,10.4l.174.614-.418-.058c-2.909-.475-6.212-5.691-7.858-12.4a33.5,33.5,0,0,1-.869-5.563v-.661h8.322ZM64.706-500.8a31.283,31.283,0,0,1-1.171,6.374c-1.507,5.227-4.369,9.956-6.8,11.254-.719.382-1.994.672-1.994.452,0-.058.1-.5.22-.985.429-1.669.475-2.677.475-10.246v-7.394h9.272Zm-16.69,40.253v1.854h-20.4V-462.4h20.4v1.854Zm5.564,5.563v1.854H22.054v-3.709H53.579Z" transform="translate(-10 508.76)" fill="#ffda49"/>
      <path id="Path_66" data-name="Path 66" d="M299.5-375.836c-.429.174-.5.487-.5,2.237,0,1.866.081,2.11.765,2.237a.708.708,0,0,0,.7-.22l.336-.29V-375.4l-.325-.278A.8.8,0,0,0,299.5-375.836Z" transform="translate(-282.31 383.604)" fill="#ffda49"/>
      <path id="Path_67" data-name="Path 67" d="M299.5-231.335a.864.864,0,0,0-.371.336,37.371,37.371,0,0,0-.128,4.682c0,4.08.023,4.485.208,4.705a.853.853,0,0,0,1.252.093l.336-.29v-9.086l-.325-.278A.8.8,0,0,0,299.5-231.335Z" transform="translate(-282.31 247.447)" fill="#ffda49"/>
    </g>
  </g>
</svg>
