<svg xmlns="http://www.w3.org/2000/svg" width="26.999" height="21.213" viewBox="0 0 26.999 21.213">
  <g id="envelope" transform="translate(0 -54.82)">
    <g id="Group_9" data-name="Group 9" transform="translate(0 54.82)">
      <path id="Path_17" data-name="Path 17" d="M2.591,61.359q.512.361,3.089,2.147t3.947,2.749q.151.106.64.46t.813.573q.324.218.784.49a4.546,4.546,0,0,0,.866.406,2.387,2.387,0,0,0,.753.136h.03a2.389,2.389,0,0,0,.753-.136,4.55,4.55,0,0,0,.866-.406q.459-.271.783-.49t.814-.573q.489-.354.64-.46,1.386-.964,7.051-4.9a7.157,7.157,0,0,0,1.838-1.853A3.979,3.979,0,0,0,27,57.231a2.431,2.431,0,0,0-2.411-2.411H2.41A2.152,2.152,0,0,0,.625,55.6,3.041,3.041,0,0,0,0,57.562a3.519,3.519,0,0,0,.829,2.057A7.478,7.478,0,0,0,2.591,61.359Z" transform="translate(0 -54.82)" fill="#6a6a86"/>
      <path id="Path_18" data-name="Path 18" d="M25.492,185.748q-4.941,3.344-7.5,5.2-.859.633-1.394.987a8.6,8.6,0,0,1-1.424.723,4.335,4.335,0,0,1-1.657.369h-.031a4.337,4.337,0,0,1-1.657-.369,8.6,8.6,0,0,1-1.424-.723q-.535-.354-1.393-.987-2.034-1.491-7.488-5.2A7.98,7.98,0,0,1,0,184.437V196.4a2.321,2.321,0,0,0,.708,1.7,2.321,2.321,0,0,0,1.7.708H24.588A2.418,2.418,0,0,0,27,196.4V184.437A8.308,8.308,0,0,1,25.492,185.748Z" transform="translate(0 -177.597)" fill="#6a6a86"/>
    </g>
  </g>
</svg>
