<svg xmlns="http://www.w3.org/2000/svg" width="18" height="18" viewBox="0 0 18 18">
  <g id="Path_75" data-name="Path 75" fill="none">
    <path d="M2,0H16c1.1,0,2,2,2,2V16a2,2,0,0,1-2,2H2a2,2,0,0,1-2-2V2A2,2,0,0,1,2,0Z" stroke="none"/>
    <path d="M 2 2 L 2 16 L 16 16 L 16 2.48902416229248 C 15.89182662963867 2.307680130004883 15.76456069946289 2.122294425964355 15.65938472747803 2 L 2 2 M 2 0 L 16 0 C 17.10457038879395 0 18 2 18 2 L 18 16 C 18 17.10457038879395 17.10457038879395 18 16 18 L 2 18 C 0.8954296112060547 18 0 17.10457038879395 0 16 L 0 2 C 0 0.8954296112060547 0.8954296112060547 0 2 0 Z" stroke="none" fill="#fff"/>
  </g>
</svg>
