<svg xmlns="http://www.w3.org/2000/svg" width="26" height="35.311" viewBox="0 0 26 35.311">
  <g id="placeholder-filled-point" transform="translate(-26.883 3)">
    <path id="Path_16" data-name="Path 16" d="M25.882,0a13.015,13.015,0,0,0-13,13,12.681,12.681,0,0,0,1.137,5.306C17.27,25.419,23.5,32.928,25.335,35.06a.724.724,0,0,0,1.1,0c1.832-2.131,8.064-9.64,11.315-16.753A12.675,12.675,0,0,0,38.883,13,13.016,13.016,0,0,0,25.882,0Zm0,19.753A6.753,6.753,0,1,1,32.635,13,6.761,6.761,0,0,1,25.882,19.753Z" transform="translate(14 -3)" fill="#6a6a86"/>
  </g>
</svg>
