<svg xmlns="http://www.w3.org/2000/svg" width="21.252" height="34.003" viewBox="0 0 21.252 34.003">
  <g id="smartphone" transform="translate(-96 0)">
    <path id="Path_15" data-name="Path 15" d="M114.064,0H99.188A3.2,3.2,0,0,0,96,3.188V30.816A3.2,3.2,0,0,0,99.188,34h14.877a3.2,3.2,0,0,0,3.188-3.188V3.188A3.2,3.2,0,0,0,114.064,0ZM102.376,1.594h8.5V2.657h-8.5Zm4.25,30.284a2.125,2.125,0,1,1,2.125-2.125A2.125,2.125,0,0,1,106.626,31.878Zm8.5-6.376h-17V4.25h17Z" transform="translate(0)" fill="#6a6a86"/>
  </g>
</svg>
